pedal_clip_forces.mot
version=1
nRows=189
nColumns=4
inDegrees=yes
endheader
time	PedalClip_calcn_r_Fx	PedalClip_calcn_r_Fy	PedalClip_calcn_r_Fz
0.80116164	7.41075186547792	21.8584536852518	0
0.80136898	7.29124003036774	21.8990539088618	0
0.80240569	7.1724407654211	21.9384738780462	0
0.80250936	7.05432521185243	21.9768097677794	0
0.80274055	6.93684612384621	22.0141482277182	0
0.80354576	6.81999329575236	22.0505736605651	0
0.80394836	6.70380163066175	22.0861881293358	0
0.80490368	6.58828372502249	22.1210252594228	0
0.80607168	6.47344995075435	22.1551506117805	0
0.8062926	6.35930227886407	22.1886919534872	0
0.80690233	6.24583532184917	22.2217445770989	0
0.80751206	6.13301532317024	22.2543480779659	0
0.80803686	6.02083840665204	22.2865453808016	0
0.80895437	5.90932409109371	22.3183435772353	0
0.80969377	5.79846003887072	22.3497072225202	0
0.80976771	5.68820851445279	22.3806634351396	0
0.80992459	5.5785281897615	22.4112810329978	0
0.81046166	5.4693585415768	22.4416886572831	0
0.81077933	5.3606605077745	22.4720298546924	0
0.8112594	5.25239005970925	22.5023903184613	0
0.8118485	5.14450986880028	22.5328585673471	0
0.8123708	5.03698736652408	22.5635586891527	0
0.81242303	4.9297547698284	22.5946154125213	0
0.8125524	4.82273989645875	22.6261320247504	0
0.81281326	4.71588454753345	22.6581755895413	0
0.81363934	4.60913703350695	22.6907725149147	0
0.81423038	4.50247349434369	22.7239194490299	0
0.81428949	4.39588332251793	22.7576085926933	0
0.81443925	4.28936575108606	22.7918240320739	0
0.81489484	4.18292257588995	22.8265493595036	0
0.81507521	4.07655698919456	22.8617680133958	0
0.81543518	3.97025806881374	22.8974867825665	0
0.81611451	3.86398177081904	22.9337734798651	0
0.81618244	3.75766714248213	22.9707199293263	0
0.81638673	3.65125324700488	23.0084061248634	0
0.8170459	3.54469581173481	23.0468750484274	0
0.81721402	3.43797069894334	23.0861262159367	0
0.81793424	3.33105161027864	23.1261527874119	0
0.81846207	3.2238911506278	23.1669894508302	0
0.81854488	3.11643836531794	23.2086779028653	0
0.8187524	3.00864733240819	23.251234859186	0
0.81947167	2.90049894701194	23.2946258603547	0
0.81973027	2.79198181058858	23.3387924402265	0
0.82047874	2.683092817631	23.3836664966844	0
0.82097288	2.57383273637577	23.4292105550168	0
0.82102325	2.4641795394084	23.4754229876088	0
0.82117865	2.35410339009587	23.5222942148522	0
0.82163759	2.24358674818321	23.5697797794984	0
0.82187821	2.13260713405012	23.6178293538171	0
0.82223807	2.02114381385095	23.6664054768436	0
0.82276853	1.90919556196841	23.7154890576567	0
0.82283559	1.79677650824474	23.7650602605887	0
0.82307017	1.68390947994811	23.8150690948411	0
0.82374629	1.57064527233409	23.8654091101939	0
0.82399482	1.45705118878629	23.9159614345368	0
0.82455536	1.34320200039718	23.9666299145204	0
0.82499453	1.2291725233568	24.017385526727	0
0.82503844	1.11502975414908	24.0682335781091	0
0.82517184	1.00081913097792	24.1191800170912	0
0.8254182	0.88656776183899	24.1702284931904	0
0.82579436	0.772312386645478	24.2213504603189	0
0.82597841	0.658108752184786	24.2724984897912	0
0.8265509	0.544005727329641	24.3236856932196	0
0.82700243	0.43003880675469	24.3749480205509	0
0.82704758	0.316227854940392	24.4262860129985	0
0.82720122	0.202590525545943	24.4776705147474	0
0.82758487	0.0891311268787074	24.5290800325614	0
0.82769741	-0.0241548795943544	24.5805243275441	0
0.82813495	-0.13727663162387	24.6320794326732	0
0.82882773	-0.250249955589226	24.6838396693297	0
0.82927063	-0.363091409471758	24.7358525694102	0
0.82935598	-0.475786426962776	24.7880784969015	0
0.82964492	-0.588297045472852	24.8404372239428	0
0.83043884	-0.70057963165605	24.8928646637181	0
0.83051823	-0.812608915374497	24.9453683119939	0
0.83069396	-0.92438328233761	24.9979936078082	0
0.83104689	-1.03590532443201	25.0507602364168	0
0.83155205	-1.14714716413272	25.1036149267283	0
0.83181965	-1.25807698582701	25.1564883549166	0
0.83217917	-1.3686744769689	25.2093334723503	0
0.83265003	-1.4789434911863	25.2621682164391	0
0.83269711	-1.58889743026139	25.3150326115111	0
0.83284771	-1.69854163232774	25.3679362993966	0
0.83325307	-1.8078420902037	25.420827216148	0
0.8334234	-1.91675568061059	25.4736428997451	0
0.83371989	-2.02525489876861	25.5263485960331	0
0.83417704	-2.13334794102156	25.5789781845659	0
0.83422275	-2.24105583056699	25.6315883868215	0
0.83437407	-2.34839035429308	25.684207701216	0
0.83477753	-2.45532192710263	25.7368051341681	0
0.83495199	-2.56181339282006	25.7893438424005	0
0.83524835	-2.66784740438525	25.8418184340074	0
0.8356912	-2.77344832403529	25.8942943629038	0
0.83573549	-2.8786544053464	25.9468581154435	0
0.83588701	-2.98349101567183	25.9995644521783	0
0.83627575	-3.0879414762128	26.0524018859806	0
0.83643419	-3.19198184310774	26.1053474567099	0
0.83671964	-3.29560926173229	26.1584071157969	0
0.83715865	-3.39886563707628	26.2116580699674	0
0.83720255	-3.50180834299265	26.2652033889983	0
0.83735345	-3.60448279594911	26.3191172163229	0
0.83773429	-3.70689370954219	26.373410434589	0
0.83788556	-3.80903642174883	26.4280824926908	0
0.83816549	-3.91092756667603	26.4831607867124	0
0.8385968	-4.0126319343818	26.5387379046106	0
0.83863993	-4.11423202902057	26.5949251019363	0
0.83879055	-4.21581000656905	26.6518039804867	0
0.83916139	-4.31741452223916	26.7093829190589	0
0.83930353	-4.41906136613891	26.7676269078667	0
0.83957785	-4.52075308585224	26.8265094773424	0
0.84000241	-4.62251715307632	26.8860663704843	0
0.84004486	-4.72440646986602	26.9463694507788	0
0.84019511	-4.82648141134822	27.0074694304994	0
0.84055687	-4.92878652500364	27.0693439813915	0
0.84069132	-5.03134351353105	27.1318908509747	0
0.84096141	-5.13414310618317	27.1949949384506	0
0.84137868	-5.23716567916421	27.2586060380761	0
0.84142041	-5.34039758904297	27.3227298082183	0
0.8415703	-5.44383509974128	27.387374892377	0
0.84192284	-5.54746893899575	27.4525070676518	0
0.84204968	-5.65128379651181	27.5180374333174	0
0.84231679	-5.75525227774409	27.5838424659483	0
0.84272643	-5.85935069249646	27.6498732961794	0
0.84276796	-5.96358272289107	27.7161719780154	0
0.84291683	-6.06799257888968	27.7828237721802	0
0.8432627	-6.1726158630161	27.8498810862228	0
0.84338399	-6.27746528014262	27.9173564471338	0
0.84364887	-6.38254393832197	27.9852481973791	0
0.84405082	-6.48788268563604	28.0536055803087	0
0.84409404	-6.59352002429558	28.1224966582501	0
0.84423994	-6.69948939983758	28.1919577175329	0
0.8445885	-6.80578871168634	28.261951637921	0
0.84471237	-6.91239390246097	28.3324242544946	0
0.84497328	-7.01928859601179	28.4033487041213	0
0.84536897	-7.12649132788698	28.4747669582273	0
0.84541313	-7.23403335006628	28.5467476731355	0
0.84555697	-7.34194611389714	28.6193285233113	0
0.8459051	-7.45023207648882	28.6924730200982	0
0.84602947	-7.55887060349366	28.7661275521355	0
0.84628737	-7.667843132254	28.8402662321469	0
0.84667682	-7.77716244887122	28.914932102885	0
0.84672209	-7.88685489880728	28.9901954126849	0
0.8468638	-7.99695100524159	29.0660952714379	0
0.84721278	-8.10745713941599	29.1425954775732	0
0.84733917	-8.21835672809461	29.2196424651778	0
0.84759467	-8.3296313205811	29.2972105388475	0
0.84797807	-8.44128960963859	29.3753421680957	0
0.84802447	-8.55335276589066	29.4541072580627	0
0.84816414	-8.66584819344996	29.5335446744023	0
0.84851437	-8.77878238366367	29.613617089816	0
0.84864347	-8.89214064047287	29.6942699647661	0
0.84889745	-9.00590480354886	29.775476944542	0
0.84927492	-9.12008090517254	29.8572792060846	0
0.84932251	-9.23468610691381	29.9397455745463	0
0.84946017	-9.34974440991806	30.0229136355781	0
0.84981227	-9.46526009950721	30.1067437029613	0
0.84994493	-9.58121785099472	30.1911791397847	0
0.85019844	-9.69759864798171	30.2761919846385	0
0.85056997	-9.81440586969981	30.3618213291922	0
0.85061884	-9.9316529527828	30.4481343227873	0
0.85075451	-10.0493607225555	30.5351668517792	0
0.85110917	-10.1675307094196	30.6228766558299	0
0.85124629	-10.2861459795353	30.7112047536172	0
0.85150056	-10.4051862380009	30.8001214216818	0
0.85186591	-10.5246525596396	30.8896639582672	0
0.85191619	-10.6445555303361	30.9798983965661	0
0.85204982	-10.764913973046	31.0708595262344	0
0.85240766	-10.8857273903839	31.1625031512639	0
0.85254991	-11.0069776333899	31.2547681408621	0
0.85280674	-11.1286431875454	31.3476229549292	0
0.85316565	-11.2507228990486	31.4411031737562	0
0.85321731	-11.3732248467023	31.5352738193972	0
0.8533489	-11.4961664199701	31.6301685848817	0
0.85370954	-11.6195452847398	31.7257413091575	0
0.85385442	-11.7433417188968	31.8219283137589	0
0.85411465	-11.8675322325803	31.9186955795873	0
0.85446854	-11.9921128677261	32.0160764026155	0
0.85452092	-12.1170888094446	32.1141342702876	0
0.85465102	-12.2424755901105	32.2129012970125	0
0.855012	-12.3682689229221	32.3123294688144	0
0.85515392	-12.4944484094016	32.4123535276903	0
0.85541263	-12.6209906241877	32.5129377751068	0
0.85576351	-12.7478911170636	32.614113031091	0
0.85581596	-12.8751537565762	32.7159414870159	0
0.85594521	-13.0027935276931	32.8184548846332	0
0.85630483	-13.1308113677847	32.9216087885157	0
0.85644405	-13.2591979331986	33.0253444646064	0
0.85670087	-13.3879383319364	33.1296294382208	0
0.85704929	-13.5170295274757	33.2344897973449	0
